<svg width="64" height="64" viewBox="0 0 64 64" fill="none" xmlns="http://www.w3.org/2000/svg">
<path d="M53.6907 32.1437L35.7316 50.1027C35.6348 50.1974 35.5579 50.3104 35.5054 50.4351C35.4529 50.5599 35.4258 50.6939 35.4258 50.8293C35.4258 50.9646 35.4529 51.0986 35.5054 51.2234C35.5579 51.3482 35.6348 51.4612 35.7316 51.5558L37.3153 53.1395C37.4335 53.2563 37.5152 53.4051 37.5501 53.5676C37.585 53.7301 37.5718 53.8993 37.512 54.0545C37.4522 54.2096 37.3485 54.3439 37.2135 54.4409C37.0785 54.5379 36.9181 54.5934 36.752 54.6007L23.4133 55.3354C23.2933 55.3435 23.1729 55.3259 23.0603 55.2836C22.9476 55.2414 22.8453 55.1755 22.7603 55.0905C22.6752 55.0054 22.6093 54.9031 22.5671 54.7905C22.5249 54.6778 22.5072 54.5574 22.5154 54.4374L23.2582 41.0905C23.2655 40.9245 23.321 40.7641 23.418 40.6291C23.515 40.4941 23.6493 40.3904 23.8044 40.3306C23.9596 40.2708 24.1288 40.2575 24.2913 40.2925C24.4538 40.3274 24.6026 40.409 24.7194 40.5273L26.3521 42.1599C26.5448 42.3441 26.8015 42.4463 27.068 42.4447C27.3346 42.4432 27.5901 42.3382 27.7807 42.1518L45.7397 24.1927C45.9562 23.9762 46.2499 23.8546 46.5561 23.8546C46.8622 23.8546 47.1559 23.9762 47.3724 24.1927L53.6907 30.511C53.9072 30.7275 54.0288 31.0212 54.0288 31.3273C54.0288 31.6335 53.9072 31.9272 53.6907 32.1437Z" fill="#AAED51" stroke="black" stroke-width="2" stroke-miterlimit="10"/>
<path d="M18.0069 39.8404L35.966 21.8813C36.0606 21.7845 36.1736 21.7076 36.2984 21.655C36.4232 21.6025 36.5572 21.5755 36.6925 21.5755C36.8279 21.5755 36.9619 21.6025 37.0867 21.655C37.2114 21.7076 37.3245 21.7845 37.4191 21.8813L39.0027 23.4649C39.1196 23.5832 39.2684 23.6648 39.4309 23.6998C39.5934 23.7347 39.7626 23.7215 39.9177 23.6617C40.0728 23.6019 40.2072 23.4981 40.3042 23.3631C40.4012 23.2281 40.4567 23.0678 40.464 22.9017L41.1986 9.56299C41.2068 9.44296 41.1892 9.32258 41.1469 9.20994C41.1047 9.09729 41.0388 8.995 40.9537 8.90993C40.8687 8.82486 40.7664 8.75899 40.6537 8.71675C40.5411 8.67451 40.4207 8.65688 40.3007 8.66504L26.9538 9.40789C26.7877 9.41512 26.6274 9.47064 26.4924 9.56767C26.3574 9.66469 26.2536 9.79899 26.1938 9.95411C26.1341 10.1092 26.1208 10.2784 26.1558 10.4409C26.1907 10.6035 26.2723 10.7523 26.3906 10.8691L28.0232 12.5017C28.2074 12.6944 28.3096 12.9511 28.308 13.2177C28.3065 13.4842 28.2014 13.7398 28.015 13.9303L10.056 31.8894C9.83946 32.1059 9.71784 32.3995 9.71784 32.7057C9.71784 33.0119 9.83946 33.3055 10.056 33.522L16.3743 39.8404C16.5908 40.0569 16.8844 40.1785 17.1906 40.1785C17.4968 40.1785 17.7904 40.0569 18.0069 39.8404Z" fill="white" stroke="black" stroke-width="2" stroke-miterlimit="10"/>
</svg>