<svg width="24" height="24" viewBox="0 0 24 24" fill="none" xmlns="http://www.w3.org/2000/svg">
<rect x="6" y="3" width="15" height="15" rx="5" stroke="#00A053" stroke-width="2"/>
<path fill-rule="evenodd" clip-rule="evenodd" d="M3.93473 6.44434C3.91491 6.64278 3.90476 6.84408 3.90476 7.04774V14.0954C3.90476 14.4608 3.93743 14.8186 4 15.166V16.0001C4 18.2093 5.79086 20.0001 8 20.0001H8.83417C9.18156 20.0627 9.53935 20.0954 9.90477 20.0954H16.9524C17.156 20.0954 17.3573 20.0852 17.5558 20.0654C16.4594 21.2549 14.8881 22.0001 13.1429 22.0001H8C4.68629 22.0001 2 19.3138 2 16.0001V10.8573C2 9.11197 2.74518 7.54073 3.93473 6.44434Z" fill="#00A053"/>
</svg>
