<svg width="24" height="24" viewBox="0 0 24 24" fill="none" xmlns="http://www.w3.org/2000/svg">
<path d="M4.92893 4.92893C3.53041 6.32746 2.578 8.10929 2.19215 10.0491C1.8063 11.9889 2.00433 13.9996 2.7612 15.8268C3.51808 17.6541 4.79981 19.2159 6.4443 20.3147C8.08879 21.4135 10.0222 22 12 22C13.9778 22 15.9112 21.4135 17.5557 20.3147C19.2002 19.2159 20.4819 17.6541 21.2388 15.8268C21.9957 13.9996 22.1937 11.9889 21.8079 10.0491C21.422 8.10929 20.4696 6.32746 19.0711 4.92893" stroke="#0E0E0C" stroke-width="2"/>
<path d="M12 15L12.6247 15.7809L12 16.2806L11.3753 15.7809L12 15ZM11 3C11 2.44771 11.4477 2 12 2C12.5523 2 13 2.44771 13 3L11 3ZM17.6247 11.7809L12.6247 15.7809L11.3753 14.2191L16.3753 10.2191L17.6247 11.7809ZM11.3753 15.7809L6.37531 11.7809L7.6247 10.2191L12.6247 14.2191L11.3753 15.7809ZM11 15L11 3L13 3L13 15L11 15Z" fill="#FFAC00"/>
</svg>
