<svg width="49" height="48" viewBox="0 0 49 48" fill="none" xmlns="http://www.w3.org/2000/svg">
<g clip-path="url(#clip0_1560_140087)">
<path d="M3.77295 19.71C4.58386 15.8242 6.47948 12.2479 9.24006 9.39551C12.0006 6.54315 15.5131 4.53162 19.3703 3.59411C23.2275 2.65659 27.2714 2.8315 31.0332 4.09855C34.7951 5.36559 38.1207 7.67289 40.6247 10.7529C43.1287 13.833 44.7085 17.5597 45.1809 21.501C45.6532 25.4422 44.9989 29.4367 43.2937 33.0212C41.5884 36.6058 38.9022 39.6336 35.5463 41.7538C32.1905 43.8739 28.3024 44.9995 24.3329 45" stroke="black" stroke-width="2" stroke-miterlimit="10" stroke-linecap="round"/>
<path d="M6.93316 19.22L3.33316 24L0.993164 18.49L6.93316 19.22Z" fill="black"/>
<path d="M24.333 39C32.6173 39 39.333 32.2843 39.333 24C39.333 15.7157 32.6173 9 24.333 9C16.0487 9 9.33301 15.7157 9.33301 24C9.33301 32.2843 16.0487 39 24.333 39Z" fill="#AAED51"/>
<path d="M24.333 10C27.102 10 29.8087 10.8211 32.111 12.3594C34.4133 13.8978 36.2077 16.0843 37.2673 18.6424C38.327 21.2006 38.6042 24.0155 38.064 26.7313C37.5238 29.447 36.1904 31.9416 34.2325 33.8995C32.2746 35.8574 29.78 37.1908 27.0643 37.731C24.3485 38.2712 21.5336 37.9939 18.9754 36.9343C16.4173 35.8747 14.2308 34.0803 12.6924 31.778C11.1541 29.4757 10.333 26.7689 10.333 24C10.333 20.287 11.808 16.726 14.4335 14.1005C17.059 11.475 20.62 10 24.333 10ZM24.333 8C21.1685 8 18.0751 8.93838 15.4439 10.6965C12.8127 12.4546 10.7619 14.9534 9.55094 17.8771C8.33994 20.8007 8.02309 24.0177 8.64045 27.1214C9.25781 30.2251 10.7817 33.0761 13.0193 35.3137C15.2569 37.5513 18.1079 39.0752 21.2116 39.6926C24.3153 40.3099 27.5323 39.9931 30.4559 38.7821C33.3796 37.5711 35.8784 35.5203 37.6365 32.8891C39.3946 30.2579 40.333 27.1645 40.333 24C40.333 19.7565 38.6473 15.6869 35.6467 12.6863C32.6461 9.68571 28.5765 8 24.333 8Z" fill="black"/>
<path d="M19.5128 18.83C19.9073 18.1714 20.4699 17.6296 21.1428 17.26C21.9247 16.8325 22.7928 16.5864 23.6828 16.54V14.85H25.0228V16.56C26.2509 16.6224 27.4289 17.0664 28.3928 17.83C28.8149 18.1889 29.1522 18.637 29.3804 19.1419C29.6086 19.6468 29.7222 20.196 29.7128 20.75H26.5728C26.5756 20.3112 26.4206 19.886 26.136 19.5519C25.8515 19.2178 25.4564 18.9971 25.0228 18.93V22.93C25.8506 23.1222 26.6629 23.3763 27.4528 23.69C28.078 23.95 28.6256 24.3667 29.0428 24.9C29.5178 25.5622 29.754 26.366 29.7128 27.18C29.7325 27.7461 29.6251 28.3095 29.3984 28.8287C29.1717 29.3479 28.8315 29.8096 28.4028 30.18C27.4531 30.9816 26.2644 31.4458 25.0228 31.5V33.19H23.6828V31.46C22.5107 31.4113 21.3854 30.9871 20.4728 30.25C20.0661 29.8829 19.7371 29.438 19.5052 28.9416C19.2733 28.4453 19.1433 27.9075 19.1228 27.36H22.3328C22.3718 27.7441 22.5211 28.1088 22.7628 28.41C23.0206 28.7231 23.3705 28.947 23.7628 29.05V25.1C22.9223 24.8941 22.0943 24.6403 21.2828 24.34C20.6637 24.079 20.1203 23.6663 19.7028 23.14C19.2264 22.4822 18.9899 21.681 19.0328 20.87C19.0086 20.1594 19.1743 19.4552 19.5128 18.83ZM26.2328 26.2C25.8923 25.8718 25.477 25.6315 25.0228 25.5V29.12C25.4739 29.0748 25.8949 28.8732 26.2128 28.55C26.3641 28.3844 26.4809 28.1904 26.5564 27.9792C26.632 27.768 26.6647 27.5439 26.6528 27.32C26.6622 27.1146 26.6298 26.9094 26.5576 26.7169C26.4854 26.5244 26.3749 26.3486 26.2328 26.2ZM22.4428 19.53C22.1434 19.8648 21.9826 20.3009 21.9928 20.75C21.9813 20.9543 22.0147 21.1588 22.0907 21.3488C22.1667 21.5389 22.2835 21.7099 22.4328 21.85C22.7954 22.1689 23.2214 22.4075 23.6828 22.55V18.88C23.2088 18.953 22.7725 19.1816 22.4428 19.53Z" fill="black"/>
</g>
<defs>
<clipPath id="clip0_1560_140087">
<rect width="48" height="48" fill="white" transform="translate(0.333008)"/>
</clipPath>
</defs>
</svg>
