<svg width="50" height="48" viewBox="0 0 50 48" fill="none" xmlns="http://www.w3.org/2000/svg">
<g clip-path="url(#clip0_2559_126233)">
<path d="M17.9051 23.41V33C17.9051 33.2148 17.9905 33.4208 18.1424 33.5727C18.2943 33.7246 18.5003 33.81 18.7151 33.81H20.4751C20.6212 33.7888 20.7702 33.8164 20.899 33.8886C21.0277 33.9608 21.129 34.0734 21.1872 34.2091C21.2453 34.3448 21.257 34.4958 21.2205 34.6389C21.184 34.7819 21.1012 34.9088 20.9851 35L13.9851 42.82C13.9215 42.8891 13.8442 42.9442 13.7581 42.9819C13.672 43.0196 13.5791 43.0391 13.4851 43.0391C13.3912 43.0391 13.2982 43.0196 13.2122 42.9819C13.1261 42.9442 13.0488 42.8891 12.9851 42.82L5.98515 35C5.89781 34.9036 5.84039 34.784 5.8199 34.6556C5.7994 34.5272 5.81671 34.3956 5.86972 34.2768C5.92273 34.1581 6.00914 34.0574 6.11842 33.9869C6.2277 33.9164 6.35512 33.8793 6.48515 33.88H8.28515C8.39767 33.8804 8.50905 33.8574 8.61218 33.8124C8.71532 33.7673 8.80794 33.7013 8.88415 33.6185C8.96035 33.5357 9.01847 33.438 9.0548 33.3315C9.09113 33.225 9.10487 33.1121 9.09515 33V23.41" fill="#AAED51"/>
<path d="M17.9051 23.41V33C17.9051 33.2148 17.9905 33.4208 18.1424 33.5727C18.2943 33.7246 18.5003 33.81 18.7151 33.81H20.4751C20.6212 33.7888 20.7702 33.8164 20.899 33.8886C21.0277 33.9608 21.129 34.0734 21.1872 34.2091C21.2453 34.3448 21.257 34.4958 21.2205 34.6389C21.184 34.7819 21.1012 34.9088 20.9851 35L13.9851 42.82C13.9215 42.8891 13.8442 42.9442 13.7581 42.9819C13.672 43.0196 13.5791 43.0391 13.4851 43.0391C13.3912 43.0391 13.2982 43.0196 13.2122 42.9819C13.1261 42.9442 13.0488 42.8891 12.9851 42.82L5.98515 35C5.89781 34.9036 5.84039 34.784 5.8199 34.6556C5.7994 34.5272 5.81671 34.3956 5.86972 34.2768C5.92273 34.1581 6.00914 34.0574 6.11842 33.9869C6.2277 33.9164 6.35512 33.8793 6.48515 33.88H8.28515C8.39767 33.8804 8.50905 33.8574 8.61218 33.8124C8.71532 33.7673 8.80794 33.7013 8.88415 33.6185C8.96035 33.5357 9.01847 33.438 9.0548 33.3315C9.09113 33.225 9.10487 33.1121 9.09515 33V23.41" stroke="black" stroke-width="2" stroke-miterlimit="10"/>
<path d="M13.4953 1.99997C15.5768 1.998 17.6121 2.61356 19.3437 3.76875C21.0752 4.92394 22.4251 6.56684 23.2226 8.48952C24.0201 10.4122 24.2293 12.5283 23.8237 14.5699C23.4181 16.6115 22.4159 18.4869 20.9441 19.9587C19.4722 21.4306 17.5968 22.4327 15.5552 22.8383C13.5136 23.2439 11.3975 23.0347 9.47486 22.2373C7.55218 21.4398 5.90928 20.0899 4.75409 18.3583C3.5989 16.6268 2.98334 14.5915 2.98531 12.51C2.9906 9.72417 4.0996 7.05398 6.06946 5.08412C8.03932 3.11426 10.7095 2.00526 13.4953 1.99997ZM13.4953 -2.50858e-05C11.0174 -0.00596182 8.59344 0.723527 6.53038 2.09607C4.46732 3.46861 2.85793 5.42248 1.90602 7.71027C0.9541 9.99805 0.702462 12.5169 1.18297 14.9477C1.66347 17.3786 2.85451 19.6123 4.60526 21.3658C6.35602 23.1194 8.58775 24.314 11.0179 24.7984C13.448 25.2828 15.9672 25.0352 18.2565 24.0869C20.5458 23.1387 22.5022 21.5324 23.8781 19.4715C25.2539 17.4107 25.9873 14.9879 25.9853 12.51C25.9853 9.19558 24.67 6.01664 22.3283 3.67113C19.9865 1.32563 16.8097 0.00527371 13.4953 -2.50858e-05Z" fill="black"/>
<path d="M13.4956 20.8C11.856 20.8 10.2532 20.3138 8.88989 19.4029C7.52661 18.4919 6.46406 17.1972 5.83661 15.6824C5.20916 14.1676 5.04499 12.5008 5.36486 10.8927C5.68473 9.28457 6.47428 7.80744 7.63365 6.64806C8.79303 5.48868 10.2702 4.69914 11.8783 4.37926C13.4864 4.05939 15.1532 4.22356 16.668 4.85101C18.1828 5.47846 19.4775 6.54101 20.3885 7.9043C21.2994 9.26758 21.7856 10.8704 21.7856 12.51C21.7829 14.7078 20.9087 16.8149 19.3546 18.369C17.8005 19.9231 15.6934 20.7973 13.4956 20.8Z" fill="white"/>
<path d="M13.4956 5.22998C14.9382 5.228 16.3491 5.65412 17.5494 6.4544C18.7498 7.25467 19.6857 8.39312 20.2387 9.7256C20.7917 11.0581 20.9369 12.5247 20.656 13.9397C20.375 15.3548 19.6805 16.6547 18.6604 17.6748C17.6402 18.6949 16.3404 19.3894 14.9253 19.6704C13.5103 19.9514 12.0437 19.8061 10.7112 19.2531C9.3787 18.7001 8.24026 17.7642 7.43998 16.5638C6.63971 15.3635 6.21359 13.9527 6.21557 12.51C6.22084 10.5808 6.98954 8.7322 8.35366 7.36807C9.71778 6.00395 11.5664 5.23526 13.4956 5.22998ZM13.4956 3.22998C11.6578 3.22998 9.86123 3.77508 8.33328 4.79632C6.80533 5.81757 5.61462 7.26906 4.91177 8.96716C4.20893 10.6653 4.02554 12.5337 4.38481 14.3361C4.74408 16.1384 5.62986 17.7937 6.93009 19.0925C8.23032 20.3914 9.88657 21.2754 11.6893 21.6327C13.4921 21.99 15.3603 21.8046 17.0576 21.0999C18.755 20.3953 20.2052 19.203 21.2248 17.674C22.2444 16.1449 22.7875 14.3478 22.7856 12.51C22.7829 10.0479 21.803 7.68747 20.0611 5.94742C18.3191 4.20737 15.9577 3.22998 13.4956 3.22998Z" fill="black"/>
<path d="M16.4853 15.71C16.2499 16.1287 15.904 16.4746 15.4853 16.71C15.0039 16.9796 14.4664 17.1337 13.9153 17.16V18.21H13.0853V17.12C12.3196 17.0843 11.5846 16.8079 10.9853 16.33C10.7229 16.1108 10.5137 15.8349 10.3734 15.5231C10.2331 15.2113 10.1653 14.8717 10.1753 14.53H12.1153C12.1137 14.8074 12.2151 15.0754 12.3998 15.2824C12.5845 15.4893 12.8395 15.6203 13.1153 15.65V13.18C12.6018 13.0621 12.0972 12.9084 11.6053 12.72C11.2118 12.5574 10.8672 12.2956 10.6053 11.96C10.3074 11.5527 10.1622 11.0535 10.1953 10.55C10.1833 10.204 10.2479 9.8597 10.3845 9.54162C10.5211 9.22354 10.7262 8.93956 10.9853 8.70998C11.5739 8.21752 12.3085 7.93283 13.0753 7.89998V6.84998H13.9053V7.89998C14.6356 7.9265 15.3376 8.18972 15.9053 8.64998C16.1587 8.87629 16.3638 9.15153 16.5082 9.45915C16.6525 9.76676 16.7332 10.1004 16.7453 10.44H14.7453C14.7191 10.2061 14.623 9.98564 14.4696 9.80724C14.3162 9.62885 14.1125 9.50086 13.8853 9.43998V11.88C14.4038 12.0114 14.9146 12.1717 15.4153 12.36C15.8095 12.5115 16.1552 12.7672 16.4153 13.1C16.7087 13.5057 16.8534 14.0001 16.8253 14.5C16.82 14.9261 16.7028 15.3434 16.4853 15.71ZM12.3253 11.15C12.5356 11.3557 12.7931 11.5068 13.0753 11.59V9.34998C12.7952 9.3763 12.5333 9.50018 12.3353 9.69998C12.2424 9.80261 12.1707 9.92259 12.1244 10.053C12.0781 10.1834 12.058 10.3218 12.0653 10.46C12.0574 10.5868 12.0766 10.7139 12.1214 10.8328C12.1662 10.9518 12.2357 11.0598 12.3253 11.15ZM14.6753 15.28C14.855 15.072 14.9512 14.8048 14.9453 14.53C14.9518 14.4024 14.9311 14.2749 14.8846 14.1559C14.838 14.0369 14.7667 13.9292 14.6753 13.84C14.4499 13.6466 14.1881 13.5004 13.9053 13.41V15.68C14.1994 15.6365 14.4705 15.4956 14.6753 15.28Z" fill="black"/>
<path d="M32.0952 24.59V15C32.0952 14.7852 32.0099 14.5792 31.858 14.4273C31.7061 14.2753 31.5 14.19 31.2852 14.19H29.5252C29.3764 14.2206 29.2216 14.1997 29.0862 14.1308C28.9508 14.0619 28.8429 13.949 28.7801 13.8106C28.7173 13.6723 28.7034 13.5167 28.7407 13.3694C28.778 13.2221 28.8642 13.0918 28.9852 13L35.9852 5.18001C36.0489 5.11092 36.1262 5.05578 36.2123 5.01806C36.2983 4.98035 36.3913 4.96088 36.4852 4.96088C36.5792 4.96088 36.6721 4.98035 36.7582 5.01806C36.8442 5.05578 36.9215 5.11092 36.9852 5.18001L43.9852 13C44.0726 13.0963 44.13 13.216 44.1505 13.3444C44.171 13.4728 44.1537 13.6044 44.1006 13.7231C44.0476 13.8419 43.9612 13.9426 43.852 14.0131C43.7427 14.0836 43.6153 14.1207 43.4852 14.12H41.7152C41.5004 14.12 41.2944 14.2053 41.1425 14.3573C40.9906 14.5092 40.9052 14.7152 40.9052 14.93V24.55" fill="#AAED51"/>
<path d="M32.0952 24.59V15C32.0952 14.7852 32.0099 14.5792 31.858 14.4273C31.7061 14.2753 31.5 14.19 31.2852 14.19H29.5252C29.3764 14.2206 29.2216 14.1998 29.0862 14.1308C28.9508 14.0619 28.8429 13.949 28.7801 13.8106C28.7173 13.6723 28.7034 13.5167 28.7407 13.3694C28.778 13.2221 28.8642 13.0918 28.9852 13L35.9852 5.18001C36.0489 5.11092 36.1262 5.05578 36.2123 5.01806C36.2983 4.98035 36.3913 4.96088 36.4852 4.96088C36.5792 4.96088 36.6721 4.98035 36.7582 5.01806C36.8442 5.05578 36.9215 5.11092 36.9852 5.18001L43.9852 13C44.0726 13.0963 44.13 13.216 44.1505 13.3444C44.171 13.4728 44.1537 13.6044 44.1006 13.7231C44.0476 13.8419 43.9612 13.9426 43.852 14.0131C43.7427 14.0836 43.6153 14.1207 43.4852 14.12H41.7152C41.5004 14.12 41.2944 14.2053 41.1425 14.3573C40.9906 14.5092 40.9052 14.7152 40.9052 14.93V24.55" stroke="black" stroke-width="2" stroke-miterlimit="10"/>
<path d="M36.4953 25C38.5776 24.998 40.6137 25.6141 42.3457 26.7702C44.0777 27.9262 45.4276 29.5703 46.2245 31.4942C47.0213 33.418 47.2293 35.5351 46.8221 37.5772C46.4149 39.6194 45.4108 41.4948 43.9369 42.9658C42.4631 44.4369 40.5858 45.4374 38.5429 45.8407C36.4999 46.2441 34.3833 46.0321 32.4609 45.2315C30.5386 44.431 28.8971 43.0779 27.7443 41.3438C26.5915 39.6096 25.9793 37.5723 25.9853 35.49C25.9958 32.7076 27.1072 30.0426 29.0765 28.077C31.0458 26.1115 33.7129 25.0052 36.4953 25ZM36.4953 23C34.0165 22.994 31.5918 23.724 29.5283 25.0975C27.4648 26.4709 25.8554 28.426 24.9041 30.7149C23.9528 33.0039 23.7023 35.5237 24.1844 37.9551C24.6666 40.3866 25.8596 42.6202 27.6123 44.3729C29.3651 46.1257 31.5987 47.3187 34.0301 47.8008C36.4616 48.283 38.9814 48.0325 41.2704 47.0812C43.5593 46.1298 45.5144 44.5205 46.8878 42.457C48.2612 40.3935 48.9912 37.9687 48.9853 35.49C48.98 32.179 47.6624 29.0052 45.3212 26.6641C42.98 24.3229 39.8062 23.0053 36.4953 23Z" fill="black"/>
<path d="M36.4956 43.77C34.8555 43.77 33.2523 43.2836 31.8888 42.3722C30.5254 41.4608 29.4628 40.1655 28.8357 38.6501C28.2085 37.1348 28.0449 35.4674 28.3656 33.859C28.6863 32.2507 29.4768 30.7735 30.6372 29.6146C31.7976 28.4556 33.2756 27.6668 34.8844 27.3481C36.4932 27.0293 38.1603 27.1949 39.6749 27.8239C41.1896 28.4529 42.4836 29.517 43.3933 30.8816C44.303 32.2462 44.7875 33.85 44.7856 35.49C44.7803 37.6861 43.9048 39.7906 42.351 41.3425C40.7972 42.8945 38.6917 43.7674 36.4956 43.77Z" fill="white"/>
<path d="M36.4956 28.2C37.9378 28.198 39.3482 28.6239 40.5484 29.4237C41.7485 30.2236 42.6845 31.3614 43.2378 32.6933C43.7911 34.0252 43.9369 35.4913 43.6567 36.9061C43.3766 38.3209 42.683 39.6207 41.6639 40.6413C40.6448 41.6618 39.3459 42.3571 37.9315 42.6392C36.5171 42.9213 35.0508 42.7775 33.7181 42.226C32.3855 41.6746 31.2463 40.7402 30.4449 39.5412C29.6434 38.3421 29.2156 36.9323 29.2156 35.49C29.2182 33.5591 29.9857 31.7079 31.3501 30.3416C32.7146 28.9754 34.5647 28.2053 36.4956 28.2ZM36.4956 26.2C34.6582 26.2 32.8621 26.7449 31.3343 27.7657C29.8066 28.7865 28.6159 30.2374 27.9127 31.9349C27.2096 33.6324 27.0256 35.5003 27.3841 37.3024C27.7425 39.1045 28.6273 40.7598 29.9265 42.059C31.2258 43.3583 32.8811 44.243 34.6832 44.6015C36.4853 44.96 38.3532 44.776 40.0507 44.0729C41.7482 43.3697 43.1991 42.179 44.2199 40.6513C45.2407 39.1235 45.7856 37.3274 45.7856 35.49C45.7856 33.0262 44.8068 30.6632 43.0646 28.921C41.3224 27.1788 38.9594 26.2 36.4956 26.2Z" fill="black"/>
<path d="M33.5153 32.29C33.7507 31.8713 34.0966 31.5254 34.5153 31.29C34.9961 31.019 35.5339 30.8648 36.0853 30.84V29.82H36.9153V30.88C37.6775 30.9177 38.4087 31.1941 39.0053 31.67C39.266 31.8906 39.474 32.1668 39.6142 32.4783C39.7543 32.7897 39.8231 33.1286 39.8153 33.47H37.8853C37.8869 33.1926 37.7855 32.9245 37.6008 32.7176C37.416 32.5107 37.1611 32.3797 36.8853 32.35V34.82C37.3952 34.9391 37.8963 35.0928 38.3853 35.28C38.7781 35.4437 39.1224 35.7054 39.3853 36.04C39.6787 36.4495 39.8233 36.947 39.7953 37.45C39.8048 37.7975 39.7371 38.1428 39.597 38.461C39.4569 38.7792 39.248 39.0623 38.9853 39.29C38.3959 39.7812 37.6618 40.0657 36.8953 40.1V41.1H36.0653V40.1C35.3345 40.0757 34.6319 39.8122 34.0653 39.35C33.8118 39.1237 33.6068 38.8484 33.4624 38.5408C33.318 38.2332 33.2374 37.8996 33.2253 37.56H35.2253C35.2515 37.7938 35.3475 38.0143 35.501 38.1927C35.6544 38.3711 35.858 38.4991 36.0853 38.56V36.17C35.5663 36.0401 35.0555 35.8798 34.5553 35.69C34.1611 35.5385 33.8154 35.2827 33.5553 34.95C33.2573 34.5465 33.112 34.0505 33.1453 33.55C33.1506 33.104 33.2787 32.6681 33.5153 32.29ZM37.6753 36.85C37.465 36.6443 37.2075 36.4932 36.9253 36.41V38.65C37.2054 38.6237 37.4673 38.4998 37.6653 38.3C37.7582 38.1974 37.8298 38.0774 37.8762 37.947C37.9225 37.8165 37.9426 37.6782 37.9353 37.54C37.9431 37.4132 37.924 37.2861 37.8792 37.1672C37.8344 37.0482 37.7649 36.9401 37.6753 36.85ZM35.3253 32.72C35.1427 32.927 35.043 33.1941 35.0453 33.47C35.0407 33.5983 35.0632 33.726 35.1115 33.845C35.1597 33.9639 35.2326 34.0712 35.3253 34.16C35.5506 34.3534 35.8125 34.4996 36.0953 34.59V32.32C35.8011 32.3635 35.53 32.5043 35.3253 32.72Z" fill="black"/>
</g>
<defs>
<clipPath id="clip0_2559_126233">
<rect width="48.03" height="48" fill="white" transform="translate(0.985352)"/>
</clipPath>
</defs>
</svg>
