<svg width="49" height="48" viewBox="0 0 49 48" fill="none" xmlns="http://www.w3.org/2000/svg">
<path d="M21.6666 29V33.48C21.6666 33.7452 21.7719 33.9996 21.9595 34.1871C22.147 34.3746 22.4014 34.48 22.6666 34.48H24.8466C25.0082 34.4786 25.1667 34.5243 25.3027 34.6117C25.4387 34.6991 25.5462 34.8243 25.612 34.9719C25.6779 35.1195 25.6992 35.2831 25.6733 35.4426C25.6475 35.6022 25.5756 35.7507 25.4666 35.87L16.8166 45.55C16.7387 45.6375 16.6432 45.7075 16.5364 45.7555C16.4295 45.8034 16.3137 45.8282 16.1966 45.8282C16.0795 45.8282 15.9637 45.8034 15.8568 45.7555C15.75 45.7075 15.6545 45.6375 15.5766 45.55L6.87659 35.87C6.76754 35.7507 6.69568 35.6022 6.66985 35.4426C6.64402 35.2831 6.66533 35.1195 6.73117 34.9719C6.79701 34.8243 6.90451 34.6991 7.04048 34.6117C7.17645 34.5243 7.33497 34.4786 7.49659 34.48H9.66659C9.93181 34.48 10.1862 34.3746 10.3737 34.1871C10.5612 33.9996 10.6666 33.7452 10.6666 33.48V29" fill="#AAED51"/>
<path d="M21.6666 29V33.48C21.6666 33.7452 21.7719 33.9996 21.9595 34.1871C22.147 34.3746 22.4014 34.48 22.6666 34.48H24.8466C25.0082 34.4786 25.1667 34.5243 25.3027 34.6117C25.4387 34.6991 25.5462 34.8243 25.612 34.9719C25.6779 35.1195 25.6992 35.2831 25.6733 35.4426C25.6475 35.6022 25.5756 35.7507 25.4666 35.87L16.8166 45.55C16.7387 45.6375 16.6432 45.7075 16.5364 45.7555C16.4295 45.8034 16.3137 45.8282 16.1966 45.8282C16.0795 45.8282 15.9637 45.8034 15.8568 45.7555C15.75 45.7075 15.6545 45.6375 15.5766 45.55L6.87659 35.87C6.76754 35.7507 6.69568 35.6022 6.66985 35.4426C6.64402 35.2831 6.66533 35.1195 6.73117 34.9719C6.79701 34.8243 6.90451 34.6991 7.04048 34.6117C7.17645 34.5243 7.33497 34.4786 7.49659 34.48H9.66659C9.93181 34.48 10.1862 34.3746 10.3737 34.1871C10.5612 33.9996 10.6666 33.7452 10.6666 33.48V29" stroke="black" stroke-width="2" stroke-miterlimit="10"/>
<path d="M44.0063 5V27C44.005 27.1172 44.0271 27.2336 44.0714 27.3422C44.1156 27.4508 44.1811 27.5494 44.264 27.6323C44.3469 27.7152 44.4456 27.7807 44.5542 27.825C44.6628 27.8692 44.7791 27.8913 44.8963 27.89H46.8363C46.9803 27.8891 47.1215 27.9303 47.2424 28.0084C47.3634 28.0866 47.4589 28.1983 47.5173 28.33C47.5757 28.4616 47.5944 28.6074 47.5711 28.7495C47.5479 28.8916 47.4836 29.0238 47.3863 29.13L39.6663 37.75C39.5978 37.8285 39.5133 37.8914 39.4184 37.9346C39.3235 37.9777 39.2205 38 39.1163 38C39.0121 38 38.9091 37.9777 38.8143 37.9346C38.7194 37.8914 38.6349 37.8285 38.5663 37.75L30.8463 29.12C30.749 29.0138 30.6848 28.8816 30.6616 28.7395C30.6383 28.5974 30.657 28.4516 30.7154 28.32C30.7738 28.1883 30.8693 28.0766 30.9903 27.9984C31.1112 27.9203 31.2523 27.8791 31.3963 27.88H33.3963C33.6272 27.8748 33.847 27.7801 34.0093 27.6159C34.1716 27.4517 34.2638 27.2309 34.2663 27V5C34.2663 4.73478 34.3717 4.48043 34.5592 4.29289C34.7468 4.10536 35.0011 4 35.2663 4H43.0063C43.2716 4 43.5259 4.10536 43.7134 4.29289C43.901 4.48043 44.0063 4.73478 44.0063 5Z" fill="#AAED51" stroke="black" stroke-width="2" stroke-miterlimit="10"/>
<path d="M16.1665 2C18.8366 2 21.4466 2.79176 23.6667 4.27516C25.8868 5.75856 27.6171 7.86697 28.6389 10.3338C29.6607 12.8006 29.928 15.515 29.4071 18.1337C28.8862 20.7525 27.6005 23.1579 25.7125 25.0459C23.8244 26.934 21.419 28.2197 18.8002 28.7406C16.1815 29.2615 13.4671 28.9942 11.0003 27.9724C8.53348 26.9506 6.42507 25.2203 4.94167 23.0002C3.45827 20.7801 2.66651 18.17 2.66651 15.5C2.6718 11.9212 4.09582 8.4905 6.62641 5.9599C9.15701 3.42931 12.5877 2.00529 16.1665 2ZM16.1665 0C13.1009 0 10.1041 0.909059 7.55517 2.61222C5.00621 4.31538 3.01954 6.73615 1.84638 9.56841C0.67322 12.4007 0.366268 15.5172 0.964339 18.5239C1.56241 21.5306 3.03864 24.2924 5.20636 26.4602C7.37407 28.6279 10.1359 30.1041 13.1426 30.7022C16.1493 31.3002 19.2659 30.9933 22.0981 29.8201C24.9304 28.647 27.3511 26.6603 29.0543 24.1113C30.7575 21.5624 31.6665 18.5656 31.6665 15.5C31.6665 11.3891 30.0335 7.44666 27.1267 4.53984C24.2199 1.63303 20.2774 0 16.1665 0V0Z" fill="black"/>
<path d="M16.1665 26C21.9655 26 26.6665 21.299 26.6665 15.5C26.6665 9.70101 21.9655 5 16.1665 5C10.3675 5 5.6665 9.70101 5.6665 15.5C5.6665 21.299 10.3675 26 16.1665 26Z" fill="white"/>
<path d="M16.1665 6C18.0454 6 19.8822 6.55717 21.4444 7.60104C23.0067 8.64491 24.2243 10.1286 24.9434 11.8645C25.6624 13.6004 25.8505 15.5105 25.484 17.3534C25.1174 19.1962 24.2126 20.8889 22.884 22.2175C21.5554 23.5461 19.8627 24.4509 18.0199 24.8175C16.177 25.184 14.2669 24.9959 12.531 24.2769C10.7951 23.5578 9.31142 22.3402 8.26755 20.7779C7.22367 19.2157 6.66651 17.3789 6.66651 15.5C6.66916 12.9813 7.6709 10.5664 9.45192 8.78541C11.2329 7.00439 13.6478 6.00265 16.1665 6ZM16.1665 4C13.892 4 11.6686 4.67446 9.77745 5.9381C7.88629 7.20174 6.4123 8.99779 5.54189 11.0991C4.67149 13.2005 4.44375 15.5128 4.88748 17.7435C5.33121 19.9743 6.42648 22.0234 8.03478 23.6317C9.64309 25.24 11.6922 26.3353 13.923 26.779C16.1538 27.2228 18.466 26.995 20.5674 26.1246C22.6687 25.2542 24.4648 23.7802 25.7284 21.8891C26.992 19.9979 27.6665 17.7745 27.6665 15.5C27.6665 12.45 26.4549 9.52494 24.2982 7.36827C22.1416 5.2116 19.2165 4 16.1665 4Z" fill="black"/>
<path d="M19.8665 19.46C19.5764 19.9592 19.1633 20.3758 18.6665 20.67C18.0657 20.9966 17.3994 21.1845 16.7165 21.22V22.52H15.6665V21.2C14.7224 21.1479 13.8191 20.7978 13.0865 20.2C12.7641 19.9242 12.5071 19.5801 12.3341 19.1926C12.1612 18.8052 12.0766 18.3841 12.0865 17.96H14.4865C14.4792 18.3002 14.5943 18.6317 14.8109 18.8941C15.0275 19.1566 15.3311 19.3325 15.6665 19.39V16.33C15.0351 16.1754 14.4139 15.9817 13.8065 15.75C13.3261 15.551 12.9057 15.2305 12.5865 14.82C12.2218 14.3119 12.0418 13.6944 12.0765 13.07C12.0627 12.6394 12.1454 12.2113 12.3184 11.8168C12.4914 11.4223 12.7504 11.0715 13.0765 10.79C13.807 10.182 14.7169 9.83073 15.6665 9.78998V8.47998H16.6665V9.77998C17.5641 9.82277 18.4251 10.1483 19.1265 10.71C19.433 10.9944 19.6794 11.3375 19.8512 11.7188C20.023 12.1001 20.1166 12.5119 20.1265 12.93H17.7365C17.7118 12.6326 17.5967 12.3499 17.4065 12.12C17.218 11.8823 16.9589 11.7107 16.6665 11.63V14.63C17.3107 14.7857 17.9451 14.9793 18.5665 15.21C19.0408 15.41 19.457 15.7264 19.7765 16.13C20.1427 16.6335 20.323 17.2484 20.2865 17.87C20.2937 18.4283 20.1485 18.978 19.8665 19.46ZM14.6665 13.82C14.93 14.0679 15.2488 14.2496 15.5965 14.35V11.58C15.2527 11.6142 14.9312 11.7661 14.6865 12.01C14.563 12.1436 14.4689 12.3016 14.4104 12.4739C14.3518 12.6462 14.33 12.8288 14.3465 13.01C14.348 13.3105 14.4622 13.5996 14.6665 13.82ZM17.6665 18.92C17.8785 18.6619 17.9856 18.3334 17.9665 18C17.971 17.8426 17.9432 17.6859 17.8847 17.5397C17.8262 17.3935 17.7383 17.2608 17.6265 17.15C17.3359 16.9045 16.9943 16.7269 16.6265 16.63V19.43C17.0247 19.3958 17.3957 19.2139 17.6665 18.92Z" fill="black"/>
</svg>
