


<svg width="64" height="64" viewBox="0 0 64 64" fill="none" xmlns="http://www.w3.org/2000/svg">
<g clip-path="url(#clip0_3445_7223)">
<path d="M51.1069 55.5866C50.8095 55.6066 50.511 55.6066 50.2136 55.5866C48.0358 55.3824 46.0076 54.3897 44.5102 52.7953C43.0129 51.2008 42.1495 49.1143 42.0824 46.928C42.0152 44.7417 42.7489 42.6061 44.1456 40.9228C45.5423 39.2394 47.5058 38.1241 49.6669 37.7866C50.1083 37.7215 50.5541 37.6903 51.0002 37.6933C53.1524 37.6886 55.2346 38.4576 56.8672 39.86C58.4997 41.2625 59.5738 43.205 59.8936 45.3333C59.8936 45.48 59.8936 45.6133 60.0002 45.76V47.4666L59.8402 48.16C59.7208 48.7004 59.5739 49.2345 59.4002 49.76C58.7677 51.4549 57.6369 52.9187 56.1566 53.9587C54.6763 54.9987 52.9159 55.5662 51.1069 55.5866ZM51.0136 43.5866C50.2232 43.6001 49.4685 43.9183 48.9071 44.4748C48.3456 45.0313 48.0207 45.7831 48.0002 46.5733C47.9967 47.3808 48.3131 48.1568 48.8804 48.7316C49.4476 49.3063 50.2194 49.6329 51.0269 49.64C51.8207 49.6368 52.5821 49.3246 53.1496 48.7695C53.7171 48.2144 54.0461 47.4602 54.0669 46.6666C54.0708 46.2682 53.995 45.873 53.8439 45.5044C53.6927 45.1357 53.4694 44.801 53.1869 44.52C52.9074 44.2327 52.5738 44.0035 52.2054 43.8456C51.837 43.6877 51.441 43.6042 51.0402 43.6L51.0136 43.5866Z" fill="#AAED51"/>
<path d="M50.9742 38.9733C52.8246 38.9436 54.6216 39.5936 56.0247 40.8002C57.4279 42.0067 58.3398 43.6861 58.5876 45.52C58.604 45.6595 58.6308 45.7977 58.6676 45.9333V47.2666C58.6676 47.44 58.5742 47.6266 58.5342 47.8133C58.4353 48.3271 58.3062 48.8347 58.1476 49.3333C57.6014 50.7633 56.641 51.9979 55.3893 52.8791C54.1375 53.7603 52.6514 54.2481 51.1209 54.28C50.8678 54.2933 50.6141 54.2933 50.3609 54.28C48.5009 54.1189 46.7642 53.2824 45.4788 51.9283C44.1935 50.5742 43.4484 48.7963 43.3844 46.9304C43.3204 45.0644 43.9419 43.2397 45.1314 41.8007C46.321 40.3617 47.9963 39.4081 49.8409 39.12C50.2164 39.0673 50.5951 39.0405 50.9742 39.04V38.9733ZM50.9742 51.04C51.5525 51.0452 52.1262 50.9361 52.6622 50.7189C53.1981 50.5016 53.6858 50.1805 54.0972 49.7741C54.5087 49.3676 54.8356 48.8838 55.0594 48.3505C55.2831 47.8172 55.3992 47.245 55.4009 46.6666C55.4073 46.0925 55.2986 45.523 55.081 44.9916C54.8634 44.4603 54.5415 43.978 54.1342 43.5733C53.5316 42.961 52.7614 42.5404 51.9205 42.3644C51.0796 42.1883 50.2054 42.2646 49.4077 42.5837C48.61 42.9027 47.9244 43.4504 47.4369 44.1578C46.9494 44.8652 46.6817 45.7009 46.6676 46.56C46.6605 47.7211 47.114 48.8377 47.9288 49.665C48.7436 50.4922 49.8531 50.9627 51.0142 50.9733L50.9742 51.04ZM51.0142 36.3066C50.5191 36.3095 50.0247 36.3451 49.5342 36.4133C47.0452 36.787 44.779 38.0585 43.163 39.9881C41.5469 41.9177 40.6928 44.3719 40.7617 46.8878C40.8306 49.4038 41.8177 51.8076 43.5369 53.6458C45.2561 55.4841 47.5885 56.6297 50.0942 56.8666C50.4495 56.8866 50.8056 56.8866 51.1609 56.8666C53.2356 56.841 55.2545 56.1913 56.9548 55.0023C58.6552 53.8132 59.9582 52.1399 60.6942 50.2C60.9876 49.3733 61.1476 48.48 61.3742 47.6133V45.5733C61.3742 45.4266 61.2809 45.28 61.2542 45.1333C60.9083 42.6704 59.6789 40.4171 57.795 38.7933C55.9112 37.1694 53.5013 36.2857 51.0142 36.3066ZM51.0142 48.3066C50.5639 48.2996 50.1346 48.1149 49.8199 47.7927C49.5053 47.4705 49.3307 47.037 49.3342 46.5866C49.3411 46.1361 49.5231 45.706 49.8417 45.3875C50.1603 45.0689 50.5904 44.8869 51.0409 44.88C51.4692 44.9178 51.8678 45.1147 52.1582 45.4318C52.4486 45.7489 52.6096 46.1633 52.6096 46.5933C52.6096 47.0233 52.4486 47.4377 52.1582 47.7548C51.8678 48.0719 51.4692 48.2688 51.0409 48.3066H51.0142Z" fill="black"/>
<path d="M32.0935 21.2133H29.3335C29.2411 21.2088 29.1505 21.1861 29.0668 21.1467C25.2431 18.9445 20.906 17.7901 16.4935 17.8H15.4668C14.5068 17.8 13.5602 17.96 12.6402 18.08V9.2H9.16016V8.41333H33.9868V9.17333H30.6668L33.8135 21.1733L32.0935 21.2133Z" fill="#AAED51"/>
<path d="M29.3328 9.74662L29.7195 11.1866L31.4795 17.8533L31.9995 19.88H29.4928C25.5145 17.6336 21.0216 16.4575 16.4528 16.4666H15.3728L13.9328 16.5733V9.74662H29.3328ZM35.2795 7.07996H7.82617V10.5333H11.2662V19.5733C12.7062 19.4266 14.0928 19.1866 15.4795 19.1333H16.4528C20.6358 19.1264 24.7469 20.2208 28.3728 22.3066C28.6512 22.4588 28.9623 22.5412 29.2795 22.5466H34.8928H35.4795L32.3328 10.5466H35.3195V7.07996H35.2795Z" fill="black"/>
<path d="M16.4 55.5734C13.1179 55.5594 9.9741 54.2503 7.65206 51.9307C5.33002 49.6112 4.01754 46.4688 4 43.1867C4.00351 39.8931 5.31162 36.735 7.63805 34.4036C9.96448 32.0722 13.1198 30.7573 16.4133 30.7467C19.7056 30.7467 22.8629 32.0545 25.1909 34.3825C27.5188 36.7104 28.8267 39.8678 28.8267 43.16C28.8267 46.4523 27.5188 49.6096 25.1909 51.9376C22.8629 54.2655 19.7056 55.5734 16.4133 55.5734H16.4ZM16.4 36.68C14.6814 36.68 13.0332 37.3628 11.8179 38.578C10.6027 39.7932 9.92 41.4414 9.92 43.16C9.92 44.8786 10.6027 46.5269 11.8179 47.7421C13.0332 48.9573 14.6814 49.64 16.4 49.64H16.5867C18.3053 49.6542 19.9591 48.985 21.1843 47.7798C22.4096 46.5746 23.1059 44.932 23.12 43.2134C23.1341 41.4948 22.465 39.8409 21.2598 38.6157C20.0545 37.3905 18.4119 36.6942 16.6933 36.68H16.4Z" fill="#AAED51"/>
<path d="M16.4127 29.4133V32.08C18.603 32.08 20.7441 32.7292 22.5656 33.9455C24.3871 35.1618 25.8073 36.8907 26.6467 38.9137C27.4861 40.9368 27.7071 43.1632 27.2817 45.3118C26.8563 47.4604 25.8037 49.4347 24.2568 50.9853C22.7099 52.5359 20.7381 53.5933 18.5906 54.0238C16.443 54.4544 14.2161 54.2387 12.191 53.4042C10.1659 52.5697 8.43363 51.1537 7.21295 49.3351C5.99226 47.5165 5.33795 45.3769 5.33268 43.1867C5.33267 40.2456 6.49918 37.4246 8.57632 35.3425C10.6535 33.2603 13.4716 32.0871 16.4127 32.08V29.4133ZM16.4127 50.9733C18.4849 50.9928 20.48 50.1882 21.959 48.7367C23.4381 47.2852 24.2799 45.3056 24.2993 43.2333C24.3188 41.1611 23.5143 39.166 22.0627 37.687C20.6112 36.208 18.6316 35.3661 16.5593 35.3467H16.2793C14.2071 35.3343 12.2149 36.1456 10.7408 37.6021C9.26678 39.0587 8.43173 41.0411 8.41935 43.1133C8.40697 45.1856 9.21829 47.1778 10.6748 48.6519C12.1314 50.1259 14.1138 50.961 16.186 50.9733H16.4127ZM16.4127 29.4133C12.7668 29.4133 9.27032 30.8616 6.69232 33.4396C4.11432 36.0176 2.66602 39.5142 2.66602 43.16C2.66602 46.8058 4.11432 50.3024 6.69232 52.8804C9.27032 55.4584 12.7668 56.9067 16.4127 56.9067C20.0585 56.9067 23.555 55.4584 26.133 52.8804C28.711 50.3024 30.1593 46.8058 30.1593 43.16C30.1593 39.5142 28.711 36.0176 26.133 33.4396C23.555 30.8616 20.0585 29.4133 16.4127 29.4133ZM16.4127 48.3067H16.266C14.901 48.3067 13.592 47.7644 12.6268 46.7992C11.6616 45.8341 11.1193 44.525 11.1193 43.16C11.1193 41.795 11.6616 40.4859 12.6268 39.5208C13.592 38.5556 14.901 38.0133 16.266 38.0133H16.4527C17.8177 38.0133 19.1267 38.5556 20.0919 39.5208C21.0571 40.4859 21.5993 41.795 21.5993 43.16C21.5993 44.525 21.0571 45.8341 20.0919 46.7992C19.1267 47.7644 17.8177 48.3067 16.4527 48.3067H16.4127Z" fill="black"/>
<path d="M34.3193 38.3867C33.5765 35.4791 32.1226 32.8018 30.0885 30.5954C28.0543 28.389 25.5037 26.7228 22.666 25.7467C20.6385 25.0143 18.5015 24.6311 16.346 24.6133C12.5486 24.6648 8.85657 25.8691 5.7593 28.0667L5.2793 27.4933C5.89263 27.08 6.46596 26.68 7.0793 26.3467C9.92638 24.7352 13.1411 23.8856 16.4126 23.88C17.4079 23.8835 18.4016 23.9593 19.386 24.1067C21.9333 24.4832 24.3729 25.3918 26.546 26.7733C27.1478 27.1669 27.8536 27.3712 28.5726 27.36H50.866C52.1512 27.3052 53.4139 27.7099 54.4278 28.5015C55.4417 29.2931 56.1407 30.4199 56.3993 31.68C56.4651 31.9967 56.5097 32.3174 56.5326 32.64C55.748 32.3379 54.9412 32.0972 54.1193 31.92C53.0223 31.6953 51.9058 31.5792 50.786 31.5733C48.718 31.5856 46.6761 32.0351 44.7941 32.8922C42.9121 33.7493 41.2327 34.9947 39.866 36.5467C39.4913 36.9685 39.1439 37.4139 38.826 37.88L38.426 38.44H34.3193V38.3867Z" fill="white"/>
<path d="M41.7333 28.64H50.8533C51.5973 28.6179 52.3339 28.7939 52.9875 29.15C53.6412 29.5061 54.1885 30.0295 54.5733 30.6667H54.3733C53.1938 30.4193 51.9918 30.2942 50.7866 30.2934C48.5344 30.297 46.3088 30.7804 44.258 31.7116C42.2072 32.6427 40.3784 34.0001 38.8933 35.6934C38.4804 36.1481 38.0973 36.6291 37.7466 37.1334H35.2933C34.2818 33.9337 32.4742 31.0433 30.04 28.7334H41.7333V28.64ZM16.4 22.64C12.8964 22.6496 9.45528 23.5684 6.41331 25.3067C5.34664 25.8934 4.35997 26.64 3.30664 27.3334L5.50664 30C8.58082 27.5269 12.3886 26.1436 16.3333 26.0667C18.3403 26.0792 20.3298 26.4401 22.2133 27.1334C24.9994 28.0865 27.4896 29.7481 29.4392 31.9549C31.3888 34.1617 32.7308 36.8377 33.3333 39.72H38.8666C39.0771 39.6732 39.2625 39.5496 39.3866 39.3734C39.8933 38.7467 40.32 38.04 40.88 37.44C42.1211 36.0196 43.6494 34.8787 45.364 34.0927C47.0786 33.3066 48.9405 32.8933 50.8266 32.88C51.857 32.8843 52.8843 32.9915 53.8933 33.2C55.2905 33.5519 56.6625 33.9974 58 34.5334C57.9874 33.4666 57.9028 32.402 57.7466 31.3467C57.4082 29.7992 56.539 28.4188 55.2898 27.4448C54.0406 26.4707 52.49 25.9643 50.9066 26.0134H28.52C28.0481 26.0259 27.5834 25.8957 27.1866 25.64C24.8606 24.1646 22.2471 23.201 19.52 22.8134C18.4695 22.6554 17.4089 22.5752 16.3466 22.5734L16.4 22.64Z" fill="black"/>
<path d="M44.2408 22.5067C44.2408 20.48 44.1208 18.5067 44.2408 16.52C44.4147 15.3084 45.0317 14.2042 45.9725 13.421C46.9133 12.6379 48.111 12.2313 49.3342 12.28V15.56C48.968 15.701 48.6154 15.875 48.2808 16.08C48.0568 16.2486 47.8801 16.4723 47.768 16.7292C47.6559 16.9862 47.6121 17.2678 47.6408 17.5467V22.5067H44.2408Z" fill="black"/>
<path d="M33.6406 43.1733H37.5606L37.2273 48.2933H33.6406V43.1733Z" fill="black"/>
<path d="M18.1327 43.1733C18.1223 43.6273 17.9355 44.0594 17.6119 44.378C17.2884 44.6966 16.8534 44.8766 16.3993 44.88C15.9396 44.88 15.4988 44.6973 15.1737 44.3723C14.8486 44.0472 14.666 43.6063 14.666 43.1466C14.6678 42.9225 14.7136 42.7009 14.801 42.4945C14.8884 42.2881 15.0156 42.101 15.1753 41.9437C15.335 41.7865 15.5241 41.6622 15.7319 41.5781C15.9396 41.4939 16.1619 41.4515 16.386 41.4533C16.6136 41.4515 16.8394 41.4946 17.0504 41.5801C17.2613 41.6656 17.4534 41.7918 17.6156 41.9515C17.7778 42.1113 17.9069 42.3014 17.9957 42.511C18.0844 42.7206 18.1309 42.9457 18.1327 43.1733Z" fill="black"/>
</g>
<defs>
<clipPath id="clip0_3445_7223">
<rect width="64" height="64" fill="white"/>
</clipPath>
</defs>
</svg>
